{"title":"Tracers 2015 PPV XVID AC3 HQ Hive-CM8","uid":11721365,"size":1384040157,"categoryP":"video","categoryS":"movies","magnet":"?xt=urn:btih:2be146292b3f6c8b8313ffa245742a8789bf90cb&amp;dn=Tracers+2015+PPV+XVID+AC3+HQ+Hive-CM8&amp;tr=udp%3A%2F%2Ftracker.openbittorrent.com%3A80&amp;tr=udp%3A%2F%2Fopen.demonii.com%3A1337&amp;tr=udp%3A%2F%2Ftracker.coppersurfer.tk%3A6969&amp;tr=udp%3A%2F%2Fexodus.desync.com%3A6969","seeders":5,"leechers":0,"uploader":".BONE.","files":5,"time":1424843979,"description":"Video: 712x380 @bitrate 1800 2pass\nAudio: English AC3 2.0 Stereo\nSample: yes included\n\nGeneral\nComplete name: Tracers.2015.PPV.XVID.AC3.HQ.Hive-CM8.avi\nFormat: AVI\nFormat/Info: Audio Video Interleave\nFile size: 1.28 GiB\nDuration: 1h 28mn\nOverall bit rate: 2 069 Kbps\nWriting application: Nandub v1.0rc2\nWriting library: Nandub build 1853/release\n\nVideo\nID: 0\nFormat: MPEG-4 Visual\nFormat profile: Advanced Simple@L5\nFormat settings, BVOP: 2\nFormat settings, QPel: Yes\nFormat settings, GMC: No warppoints\nFormat settings, Matrix: Default (H.263)\nMuxing mode: Packed bitstream\nCodec ID: XVID\nCodec ID/Hint: XviD\nDuration: 1h 28mn\nBit rate: 1 801 Kbps\nWidth: 712 pixels\nHeight: 380 pixels\nDisplay aspect ratio: 1.85:1\nFrame rate: 29.970 fps\nColor space: YUV\nChroma subsampling: 4:2:0\nBit depth: 8 bits\nScan type: Progressive\nCompression mode: Lossy\nBits/(Pixel*Frame): 0.222\nStream size: 1.11 GiB (87%)\nWriting library: XviD 1.2.1 (UTC 2008-12-04)\n\nAudio\nID: 1\nFormat: AC-3\nFormat/Info: Audio Coding 3\nMode extension: CM (complete main)\nFormat settings, Endianness: Big\nCodec ID: 2000\nDuration: 1h 28mn\nBit rate mode: Constant\nBit rate: 256 Kbps\nChannel(s): 2 channels\nChannel positions: Front: L R\nSampling rate: 48.0 KHz\nBit depth: 16 bits\nCompression mode: Lossy\nDelay relative to video: 16ms\nStream size: 162 MiB (12%)\nAlignment: Split accross interleaves\nInterleave, duration: 33 ms (1.00 video frame)\nInterleave, preload duration: 500 ms\n\nThx Hive\n\nCM8 Doing It Right The First Time\n\nSource: HK-INC\nthx\n\n\nfirstly this is not a new source, took the source file and played with it\n\nEncode:\n\nsource was something between 4:3 and not widescreen,if you want the 4:3 ar aquos release is just fine btw\ntried to get it to full widescreen without loosing much video, in the end its all about choices\nI changed ar, changed aspect, cropped a bit on top and bit on bottom and ended in full widescreen\nadded brightness,fixed contrast and rgb, slightly sharpen\n\nit does look just fine now, its not the sharpest, but it will do till retail for me\n\nenjoy\n\nSugarB\nSiMPLE,DiNGiE\nViSiON,SceneLovers,PRESTiGE,SANTi,YanKeeS,COPYxRIGHT,THC\nLKRG,Kingstoner,REsuRRecTioN,FooKaS,ACAB,Unevano,BigVik,Rapeseed,SAFC\ngoldadvance,KaN1vE,Pinnz,Wayne,SeeN,jtr,ICONiK,TED\nMr Hive,and most P2P\nGreat Work Guys\n\nLOOKING FOR ANYTHING YOU WANT TO LOOK AND SOUND BETTER\n\nCOME FIND US\n&lt;a class=&quot;__cf_email__&quot; href=&quot;/cdn-cgi/l/email-protection&quot; data-cfemail=&quot;9bd8d6a3dbf3eee8f3f6faf2f7b5f6fe&quot;&gt;[email&amp;#160;protected]&lt;/a&gt;&lt;script cf-hash='f9e31' type=&quot;text/javascript&quot;&gt;\n/* &lt;![CDATA[ */!function(){try{var t=&quot;currentScript&quot;in document?document.currentScript:function(){for(var t=document.getElementsByTagName(&quot;script&quot;),e=t.length;e--;)if(t[e].getAttribute(&quot;cf-hash&quot;))return t[e]}();if(t&amp;&amp;t.previousSibling){var e,r,n,i,c=t.previousSibling,a=c.getAttribute(&quot;data-cfemail&quot;);if(a){for(e=&quot;&quot;,r=parseInt(a.substr(0,2),16),n=2;a.length-n;n+=2)i=parseInt(a.substr(n,2),16)^r,e+=String.fromCharCode(i);e=document.createTextNode(e),c.parentNode.replaceChild(e,c)}}}catch(u){}}();/* ]]&gt; */&lt;/script&gt;","torrent":{"xt":"urn:btih:2be146292b3f6c8b8313ffa245742a8789bf90cb","amp;dn":"Tracers+2015+PPV+XVID+AC3+HQ+Hive-CM8","amp;tr":["udp%3A%2F%2Ftracker.openbittorrent.com%3A80","udp%3A%2F%2Fopen.demonii.com%3A1337","udp%3A%2F%2Ftracker.coppersurfer.tk%3A6969","udp%3A%2F%2Fexodus.desync.com%3A6969"],"infoHash":"2be146292b3f6c8b8313ffa245742a8789bf90cb","infoHashBuffer":{"type":"Buffer","data":[43,225,70,41,43,63,108,139,131,19,255,162,69,116,42,135,137,191,144,203]},"announce":[],"urlList":[]}}